<svg xmlns="http://www.w3.org/2000/svg" xmlns:xlink="http://www.w3.org/1999/xlink" viewBox="0 0 66 65" fill="#fff" fill-rule="evenodd" stroke="#000" stroke-linecap="round" stroke-linejoin="round"><use xlink:href="#A" x=".5" y=".5"/><symbol id="A" overflow="visible"><g stroke="none" fill-rule="nonzero"><path d="M17.512 21.24v2.4h13.152l-15.2 25.32v.563h32.633V47.06H19.543l15.543-25.8zm26.936-5.275l-15.613 25.8h19.27v-2.462h-14.84l15.262-25.248v-.563H17.512v2.462z"/><path d="M32 0C14.347 0 0 14.347 0 32s14.347 32 32 32 32-14.347 32-32S49.653 0 32 0zm16.106 49.512H15.473v-.563l15.262-25.32H17.583v-2.462h17.582l-15.543 25.8h28.624V49.5zm.422-35.446l-15.262 25.32h14.84v2.462h-19.27l15.543-25.8H17.443v-2.462h31.015v.492z" fill="#b70038"/></g></symbol></svg>